<mxfile host="app.diagrams.net" modified="2023-11-12T05:12:24.549Z" agent="Mozilla/5.0 (Windows NT 10.0; Win64; x64) AppleWebKit/537.36 (KHTML, like Gecko) Chrome/119.0.0.0 Safari/537.36" etag="NkJCJ7ubVs5o6O_uUaNu" version="22.1.0" type="device">
  <diagram name="Page-1" id="27CnXi7IoSPbBlEYfbMW">
    <mxGraphModel dx="1185" dy="641" grid="1" gridSize="10" guides="1" tooltips="1" connect="1" arrows="1" fold="1" page="1" pageScale="1" pageWidth="850" pageHeight="1100" math="0" shadow="0">
      <root>
        <mxCell id="0" />
        <mxCell id="1" parent="0" />
        <mxCell id="OB2jG7HekoKGWCoRVGRj-1" value="" style="rounded=0;whiteSpace=wrap;html=1;" parent="1" vertex="1">
          <mxGeometry x="335" y="190" width="570" height="340" as="geometry" />
        </mxCell>
        <mxCell id="OB2jG7HekoKGWCoRVGRj-2" value="base" style="text;html=1;strokeColor=none;fillColor=none;align=center;verticalAlign=middle;whiteSpace=wrap;rounded=0;" parent="1" vertex="1">
          <mxGeometry x="590" y="150" width="60" height="30" as="geometry" />
        </mxCell>
        <mxCell id="OB2jG7HekoKGWCoRVGRj-3" value="navbar" style="rounded=0;whiteSpace=wrap;html=1;" parent="1" vertex="1">
          <mxGeometry x="345" y="200" width="540" height="60" as="geometry" />
        </mxCell>
        <mxCell id="OB2jG7HekoKGWCoRVGRj-4" value="footer" style="rounded=0;whiteSpace=wrap;html=1;" parent="1" vertex="1">
          <mxGeometry x="345" y="450" width="540" height="60" as="geometry" />
        </mxCell>
        <mxCell id="OB2jG7HekoKGWCoRVGRj-5" value="sidebar" style="rounded=0;whiteSpace=wrap;html=1;" parent="1" vertex="1">
          <mxGeometry x="355" y="270" width="160" height="160" as="geometry" />
        </mxCell>
        <mxCell id="OB2jG7HekoKGWCoRVGRj-6" value="main" style="rounded=0;whiteSpace=wrap;html=1;" parent="1" vertex="1">
          <mxGeometry x="525" y="270" width="360" height="160" as="geometry" />
        </mxCell>
        <mxCell id="OB2jG7HekoKGWCoRVGRj-7" value="" style="rounded=0;whiteSpace=wrap;html=1;" parent="1" vertex="1">
          <mxGeometry x="935" y="200" width="100" height="50" as="geometry" />
        </mxCell>
        <mxCell id="OB2jG7HekoKGWCoRVGRj-8" value="" style="rounded=0;whiteSpace=wrap;html=1;" parent="1" vertex="1">
          <mxGeometry x="955" y="310" width="40" height="30" as="geometry" />
        </mxCell>
        <mxCell id="OB2jG7HekoKGWCoRVGRj-10" value="Props" style="text;html=1;strokeColor=none;fillColor=none;align=center;verticalAlign=middle;whiteSpace=wrap;rounded=0;" parent="1" vertex="1">
          <mxGeometry x="1005" y="270" width="60" height="30" as="geometry" />
        </mxCell>
        <mxCell id="OB2jG7HekoKGWCoRVGRj-11" value="" style="shape=flexArrow;endArrow=classic;html=1;rounded=0;exitX=0.42;exitY=1.01;exitDx=0;exitDy=0;exitPerimeter=0;entryX=0.49;entryY=-0.103;entryDx=0;entryDy=0;entryPerimeter=0;" parent="1" source="OB2jG7HekoKGWCoRVGRj-7" target="OB2jG7HekoKGWCoRVGRj-8" edge="1">
          <mxGeometry width="50" height="50" relative="1" as="geometry">
            <mxPoint x="985" y="310" as="sourcePoint" />
            <mxPoint x="1035" y="260" as="targetPoint" />
          </mxGeometry>
        </mxCell>
        <mxCell id="OB2jG7HekoKGWCoRVGRj-13" value="" style="rounded=0;whiteSpace=wrap;html=1;" parent="1" vertex="1">
          <mxGeometry x="935" y="400" width="100" height="50" as="geometry" />
        </mxCell>
        <mxCell id="OB2jG7HekoKGWCoRVGRj-14" value="" style="rounded=0;whiteSpace=wrap;html=1;" parent="1" vertex="1">
          <mxGeometry x="955" y="510" width="40" height="30" as="geometry" />
        </mxCell>
        <mxCell id="OB2jG7HekoKGWCoRVGRj-15" value="callback" style="text;html=1;strokeColor=none;fillColor=none;align=center;verticalAlign=middle;whiteSpace=wrap;rounded=0;" parent="1" vertex="1">
          <mxGeometry x="1005" y="470" width="60" height="30" as="geometry" />
        </mxCell>
        <mxCell id="OB2jG7HekoKGWCoRVGRj-17" value="" style="shape=flexArrow;endArrow=classic;html=1;rounded=0;entryX=0.46;entryY=1.026;entryDx=0;entryDy=0;entryPerimeter=0;exitX=0.5;exitY=-0.09;exitDx=0;exitDy=0;exitPerimeter=0;" parent="1" source="OB2jG7HekoKGWCoRVGRj-14" target="OB2jG7HekoKGWCoRVGRj-13" edge="1">
          <mxGeometry width="50" height="50" relative="1" as="geometry">
            <mxPoint x="905" y="490" as="sourcePoint" />
            <mxPoint x="955" y="440" as="targetPoint" />
          </mxGeometry>
        </mxCell>
        <mxCell id="OB2jG7HekoKGWCoRVGRj-18" value="" style="rounded=0;whiteSpace=wrap;html=1;" parent="1" vertex="1">
          <mxGeometry x="1135" y="140" width="100" height="50" as="geometry" />
        </mxCell>
        <mxCell id="OB2jG7HekoKGWCoRVGRj-19" value="" style="rounded=0;whiteSpace=wrap;html=1;" parent="1" vertex="1">
          <mxGeometry x="1155" y="250" width="40" height="30" as="geometry" />
        </mxCell>
        <mxCell id="OB2jG7HekoKGWCoRVGRj-20" value="Props" style="text;html=1;strokeColor=none;fillColor=none;align=center;verticalAlign=middle;whiteSpace=wrap;rounded=0;" parent="1" vertex="1">
          <mxGeometry x="1205" y="200" width="60" height="30" as="geometry" />
        </mxCell>
        <mxCell id="OB2jG7HekoKGWCoRVGRj-21" value="" style="shape=flexArrow;endArrow=classic;html=1;rounded=0;exitX=0.42;exitY=1.01;exitDx=0;exitDy=0;exitPerimeter=0;entryX=0.49;entryY=-0.103;entryDx=0;entryDy=0;entryPerimeter=0;" parent="1" source="OB2jG7HekoKGWCoRVGRj-18" target="OB2jG7HekoKGWCoRVGRj-19" edge="1">
          <mxGeometry width="50" height="50" relative="1" as="geometry">
            <mxPoint x="1185" y="250" as="sourcePoint" />
            <mxPoint x="1235" y="200" as="targetPoint" />
          </mxGeometry>
        </mxCell>
        <mxCell id="OB2jG7HekoKGWCoRVGRj-22" value="" style="rounded=0;whiteSpace=wrap;html=1;" parent="1" vertex="1">
          <mxGeometry x="1175" y="350" width="20" height="20" as="geometry" />
        </mxCell>
        <mxCell id="OB2jG7HekoKGWCoRVGRj-23" value="" style="shape=flexArrow;endArrow=classic;html=1;rounded=0;exitX=0.42;exitY=1.01;exitDx=0;exitDy=0;exitPerimeter=0;entryX=0.49;entryY=-0.103;entryDx=0;entryDy=0;entryPerimeter=0;" parent="1" edge="1">
          <mxGeometry width="50" height="50" relative="1" as="geometry">
            <mxPoint x="1177" y="284" as="sourcePoint" />
            <mxPoint x="1175" y="340" as="targetPoint" />
          </mxGeometry>
        </mxCell>
        <mxCell id="OB2jG7HekoKGWCoRVGRj-24" value="Props" style="text;html=1;strokeColor=none;fillColor=none;align=center;verticalAlign=middle;whiteSpace=wrap;rounded=0;" parent="1" vertex="1">
          <mxGeometry x="1195" y="290" width="60" height="30" as="geometry" />
        </mxCell>
        <mxCell id="OB2jG7HekoKGWCoRVGRj-25" value="" style="rounded=0;whiteSpace=wrap;html=1;" parent="1" vertex="1">
          <mxGeometry x="1095" y="530" width="100" height="50" as="geometry" />
        </mxCell>
        <mxCell id="OB2jG7HekoKGWCoRVGRj-26" value="" style="rounded=0;whiteSpace=wrap;html=1;" parent="1" vertex="1">
          <mxGeometry x="1115" y="640" width="40" height="30" as="geometry" />
        </mxCell>
        <mxCell id="OB2jG7HekoKGWCoRVGRj-27" value="callback" style="text;html=1;strokeColor=none;fillColor=none;align=center;verticalAlign=middle;whiteSpace=wrap;rounded=0;" parent="1" vertex="1">
          <mxGeometry x="1165" y="600" width="60" height="30" as="geometry" />
        </mxCell>
        <mxCell id="OB2jG7HekoKGWCoRVGRj-28" value="" style="shape=flexArrow;endArrow=classic;html=1;rounded=0;entryX=0.46;entryY=1.026;entryDx=0;entryDy=0;entryPerimeter=0;exitX=0.5;exitY=-0.09;exitDx=0;exitDy=0;exitPerimeter=0;" parent="1" source="OB2jG7HekoKGWCoRVGRj-26" target="OB2jG7HekoKGWCoRVGRj-25" edge="1">
          <mxGeometry width="50" height="50" relative="1" as="geometry">
            <mxPoint x="1065" y="620" as="sourcePoint" />
            <mxPoint x="1115" y="570" as="targetPoint" />
          </mxGeometry>
        </mxCell>
        <mxCell id="OB2jG7HekoKGWCoRVGRj-29" value="" style="rounded=0;whiteSpace=wrap;html=1;" parent="1" vertex="1">
          <mxGeometry x="1075" y="385" width="190" height="80" as="geometry" />
        </mxCell>
        <mxCell id="OB2jG7HekoKGWCoRVGRj-30" value="" style="shape=flexArrow;endArrow=classic;html=1;rounded=0;entryX=0.46;entryY=1.026;entryDx=0;entryDy=0;entryPerimeter=0;exitX=0.5;exitY=-0.09;exitDx=0;exitDy=0;exitPerimeter=0;" parent="1" edge="1">
          <mxGeometry width="50" height="50" relative="1" as="geometry">
            <mxPoint x="1149" y="526" as="sourcePoint" />
            <mxPoint x="1155" y="470" as="targetPoint" />
          </mxGeometry>
        </mxCell>
        <mxCell id="OB2jG7HekoKGWCoRVGRj-31" value="callback" style="text;html=1;strokeColor=none;fillColor=none;align=center;verticalAlign=middle;whiteSpace=wrap;rounded=0;" parent="1" vertex="1">
          <mxGeometry x="1215" y="480" width="60" height="30" as="geometry" />
        </mxCell>
        <mxCell id="OB2jG7HekoKGWCoRVGRj-32" value="" style="shape=flexArrow;endArrow=classic;startArrow=classic;html=1;rounded=0;fillColor=#f8cecc;strokeColor=#b85450;" parent="1" source="OB2jG7HekoKGWCoRVGRj-4" edge="1">
          <mxGeometry width="100" height="100" relative="1" as="geometry">
            <mxPoint x="455" y="340" as="sourcePoint" />
            <mxPoint x="545" y="250" as="targetPoint" />
          </mxGeometry>
        </mxCell>
        <mxCell id="OB2jG7HekoKGWCoRVGRj-33" value="provider" style="rounded=0;whiteSpace=wrap;html=1;" parent="1" vertex="1">
          <mxGeometry x="60" y="270" width="120" height="60" as="geometry" />
        </mxCell>
        <mxCell id="OB2jG7HekoKGWCoRVGRj-34" value="Object[dictionary]&lt;br&gt;(local storage)" style="text;html=1;strokeColor=none;fillColor=none;align=center;verticalAlign=middle;whiteSpace=wrap;rounded=0;" parent="1" vertex="1">
          <mxGeometry x="75" y="230" width="60" height="30" as="geometry" />
        </mxCell>
        <mxCell id="OB2jG7HekoKGWCoRVGRj-35" value="" style="shape=flexArrow;endArrow=classic;html=1;rounded=0;exitX=0.004;exitY=0.591;exitDx=0;exitDy=0;exitPerimeter=0;entryX=1;entryY=0.25;entryDx=0;entryDy=0;fillColor=#d5e8d4;strokeColor=#82b366;" parent="1" source="OB2jG7HekoKGWCoRVGRj-3" target="OB2jG7HekoKGWCoRVGRj-33" edge="1">
          <mxGeometry width="50" height="50" relative="1" as="geometry">
            <mxPoint x="285" y="250" as="sourcePoint" />
            <mxPoint x="335" y="200" as="targetPoint" />
          </mxGeometry>
        </mxCell>
        <mxCell id="OB2jG7HekoKGWCoRVGRj-36" value="" style="shape=flexArrow;endArrow=classic;startArrow=classic;html=1;rounded=0;exitX=0;exitY=0.5;exitDx=0;exitDy=0;fillColor=#d5e8d4;strokeColor=#82b366;" parent="1" source="OB2jG7HekoKGWCoRVGRj-4" target="OB2jG7HekoKGWCoRVGRj-33" edge="1">
          <mxGeometry width="100" height="100" relative="1" as="geometry">
            <mxPoint x="205" y="500" as="sourcePoint" />
            <mxPoint x="305" y="400" as="targetPoint" />
          </mxGeometry>
        </mxCell>
      </root>
    </mxGraphModel>
  </diagram>
</mxfile>
